<mxfile host="app.diagrams.net" modified="2023-09-14T00:52:36.720Z" agent="Mozilla/5.0 (Windows NT 10.0; Win64; x64) AppleWebKit/537.36 (KHTML, like Gecko) Chrome/116.0.0.0 Safari/537.36" etag="3qFXEr1zkxOqTvuC7buK" version="21.7.5" type="github">
  <diagram name="Página-1" id="VCBnbAxDG6qYa0xFtTjj">
    <mxGraphModel dx="2620" dy="1138" grid="1" gridSize="10" guides="1" tooltips="1" connect="1" arrows="1" fold="1" page="1" pageScale="1" pageWidth="827" pageHeight="1169" math="0" shadow="0">
      <root>
        <mxCell id="0" />
        <mxCell id="1" parent="0" />
        <mxCell id="nkVHdqA7vqXemqnChmF6-2" value="" style="shape=folder;fontStyle=1;tabWidth=80;tabHeight=30;tabPosition=left;html=1;boundedLbl=1;whiteSpace=wrap;" parent="1" vertex="1">
          <mxGeometry x="-820" y="10" width="870" height="850" as="geometry" />
        </mxCell>
        <mxCell id="clQKY3i6xso6ofaXY0z9-121" style="edgeStyle=orthogonalEdgeStyle;rounded=0;orthogonalLoop=1;jettySize=auto;html=1;entryX=0.5;entryY=0;entryDx=0;entryDy=0;" parent="1" source="nkVHdqA7vqXemqnChmF6-1" target="clQKY3i6xso6ofaXY0z9-76" edge="1">
          <mxGeometry relative="1" as="geometry" />
        </mxCell>
        <mxCell id="nkVHdqA7vqXemqnChmF6-1" value="FUNCIONÁRIO ACESSA A PÁGINA&amp;nbsp;" style="rounded=1;whiteSpace=wrap;html=1;" parent="1" vertex="1">
          <mxGeometry x="-550" y="140" width="120" height="60" as="geometry" />
        </mxCell>
        <mxCell id="clQKY3i6xso6ofaXY0z9-120" style="edgeStyle=orthogonalEdgeStyle;rounded=0;orthogonalLoop=1;jettySize=auto;html=1;entryX=0;entryY=0.5;entryDx=0;entryDy=0;" parent="1" source="nkVHdqA7vqXemqnChmF6-7" target="nkVHdqA7vqXemqnChmF6-1" edge="1">
          <mxGeometry relative="1" as="geometry" />
        </mxCell>
        <object label="" Início="" id="nkVHdqA7vqXemqnChmF6-7">
          <mxCell style="ellipse;fillColor=strokeColor;html=1;" parent="1" vertex="1">
            <mxGeometry x="-760" y="155" width="30" height="30" as="geometry" />
          </mxCell>
        </object>
        <mxCell id="clQKY3i6xso6ofaXY0z9-116" style="edgeStyle=orthogonalEdgeStyle;rounded=0;orthogonalLoop=1;jettySize=auto;html=1;entryX=0.5;entryY=0;entryDx=0;entryDy=0;" parent="1" source="nkVHdqA7vqXemqnChmF6-9" target="nkVHdqA7vqXemqnChmF6-14" edge="1">
          <mxGeometry relative="1" as="geometry" />
        </mxCell>
        <mxCell id="nkVHdqA7vqXemqnChmF6-9" value="CONSULTAR&lt;br&gt;PRODUTO" style="rounded=1;whiteSpace=wrap;html=1;" parent="1" vertex="1">
          <mxGeometry x="-710" y="300" width="120" height="60" as="geometry" />
        </mxCell>
        <mxCell id="clQKY3i6xso6ofaXY0z9-118" style="edgeStyle=orthogonalEdgeStyle;rounded=0;orthogonalLoop=1;jettySize=auto;html=1;entryX=0.5;entryY=0;entryDx=0;entryDy=0;" parent="1" source="nkVHdqA7vqXemqnChmF6-10" target="nkVHdqA7vqXemqnChmF6-33" edge="1">
          <mxGeometry relative="1" as="geometry" />
        </mxCell>
        <mxCell id="nkVHdqA7vqXemqnChmF6-10" value="CONSULTAR&lt;br&gt;TIPO DO&lt;br&gt;PRODUTO" style="rounded=1;whiteSpace=wrap;html=1;" parent="1" vertex="1">
          <mxGeometry x="-310" y="300" width="120" height="60" as="geometry" />
        </mxCell>
        <mxCell id="clQKY3i6xso6ofaXY0z9-114" style="edgeStyle=orthogonalEdgeStyle;rounded=0;orthogonalLoop=1;jettySize=auto;html=1;entryX=0.5;entryY=0;entryDx=0;entryDy=0;" parent="1" source="nkVHdqA7vqXemqnChmF6-14" target="nkVHdqA7vqXemqnChmF6-16" edge="1">
          <mxGeometry relative="1" as="geometry" />
        </mxCell>
        <mxCell id="clQKY3i6xso6ofaXY0z9-115" style="edgeStyle=orthogonalEdgeStyle;rounded=0;orthogonalLoop=1;jettySize=auto;html=1;entryX=0;entryY=0.5;entryDx=0;entryDy=0;" parent="1" source="nkVHdqA7vqXemqnChmF6-14" target="clQKY3i6xso6ofaXY0z9-98" edge="1">
          <mxGeometry relative="1" as="geometry" />
        </mxCell>
        <mxCell id="nkVHdqA7vqXemqnChmF6-14" value="" style="rhombus;whiteSpace=wrap;html=1;rounded=1;strokeColor=default;fontFamily=Helvetica;fontSize=12;fontColor=default;fillColor=default;" parent="1" vertex="1">
          <mxGeometry x="-685" y="400" width="70" height="50" as="geometry" />
        </mxCell>
        <mxCell id="clQKY3i6xso6ofaXY0z9-113" style="edgeStyle=orthogonalEdgeStyle;rounded=0;orthogonalLoop=1;jettySize=auto;html=1;" parent="1" source="nkVHdqA7vqXemqnChmF6-16" edge="1">
          <mxGeometry relative="1" as="geometry">
            <mxPoint x="-670" y="660" as="targetPoint" />
          </mxGeometry>
        </mxCell>
        <mxCell id="nkVHdqA7vqXemqnChmF6-16" value="CADASTRAR&lt;br&gt;PRODUTO" style="rounded=1;whiteSpace=wrap;html=1;" parent="1" vertex="1">
          <mxGeometry x="-810" y="500" width="120" height="60" as="geometry" />
        </mxCell>
        <mxCell id="nkVHdqA7vqXemqnChmF6-22" value="" style="endArrow=none;startArrow=none;endFill=0;startFill=0;endSize=8;html=1;verticalAlign=bottom;labelBackgroundColor=none;strokeWidth=3;rounded=0;fontFamily=Helvetica;fontSize=12;fontColor=default;entryX=0.782;entryY=0.765;entryDx=0;entryDy=0;entryPerimeter=0;" parent="1" target="nkVHdqA7vqXemqnChmF6-2" edge="1">
          <mxGeometry width="160" relative="1" as="geometry">
            <mxPoint x="-720" y="660" as="sourcePoint" />
            <mxPoint x="-310" y="660" as="targetPoint" />
            <Array as="points">
              <mxPoint x="-530.12" y="660" />
            </Array>
          </mxGeometry>
        </mxCell>
        <mxCell id="nkVHdqA7vqXemqnChmF6-25" value="INÍCIO" style="text;strokeColor=none;fillColor=none;align=left;verticalAlign=middle;spacingLeft=4;spacingRight=4;overflow=hidden;points=[[0,0.5],[1,0.5]];portConstraint=eastwest;rotatable=0;whiteSpace=wrap;html=1;fontSize=12;fontFamily=Helvetica;fontColor=default;" parent="1" vertex="1">
          <mxGeometry x="-770" y="190" width="50" height="25" as="geometry" />
        </mxCell>
        <mxCell id="nkVHdqA7vqXemqnChmF6-26" value="NÃO" style="text;strokeColor=none;fillColor=none;align=left;verticalAlign=middle;spacingLeft=4;spacingRight=4;overflow=hidden;points=[[0,0.5],[1,0.5]];portConstraint=eastwest;rotatable=0;whiteSpace=wrap;html=1;fontSize=12;fontFamily=Helvetica;fontColor=default;" parent="1" vertex="1">
          <mxGeometry x="-740" y="405" width="40" height="20" as="geometry" />
        </mxCell>
        <mxCell id="nkVHdqA7vqXemqnChmF6-29" value="SIM" style="text;strokeColor=none;fillColor=none;align=left;verticalAlign=middle;spacingLeft=4;spacingRight=4;overflow=hidden;points=[[0,0.5],[1,0.5]];portConstraint=eastwest;rotatable=0;whiteSpace=wrap;html=1;fontSize=12;fontFamily=Helvetica;fontColor=default;" parent="1" vertex="1">
          <mxGeometry x="-590" y="405" width="40" height="20" as="geometry" />
        </mxCell>
        <mxCell id="nkVHdqA7vqXemqnChmF6-30" value="PRODUTO EXISTE?" style="text;strokeColor=none;fillColor=none;align=left;verticalAlign=middle;spacingLeft=4;spacingRight=4;overflow=hidden;points=[[0,0.5],[1,0.5]];portConstraint=eastwest;rotatable=0;whiteSpace=wrap;html=1;fontSize=12;fontFamily=Helvetica;fontColor=default;" parent="1" vertex="1">
          <mxGeometry x="-685" y="450" width="80" height="30" as="geometry" />
        </mxCell>
        <mxCell id="clQKY3i6xso6ofaXY0z9-108" style="edgeStyle=orthogonalEdgeStyle;rounded=0;orthogonalLoop=1;jettySize=auto;html=1;exitX=0.5;exitY=1;exitDx=0;exitDy=0;" parent="1" source="nkVHdqA7vqXemqnChmF6-31" edge="1">
          <mxGeometry relative="1" as="geometry">
            <mxPoint x="-345" y="660" as="targetPoint" />
            <Array as="points">
              <mxPoint x="-345" y="660" />
            </Array>
          </mxGeometry>
        </mxCell>
        <mxCell id="nkVHdqA7vqXemqnChmF6-31" value="CADASTRAR&lt;br&gt;TIPO DO&lt;br&gt;PRODUTO" style="rounded=1;whiteSpace=wrap;html=1;" parent="1" vertex="1">
          <mxGeometry x="-405" y="500" width="120" height="60" as="geometry" />
        </mxCell>
        <mxCell id="clQKY3i6xso6ofaXY0z9-107" style="edgeStyle=orthogonalEdgeStyle;rounded=0;orthogonalLoop=1;jettySize=auto;html=1;" parent="1" source="nkVHdqA7vqXemqnChmF6-32" edge="1">
          <mxGeometry relative="1" as="geometry">
            <mxPoint x="-270" y="660" as="targetPoint" />
            <Array as="points">
              <mxPoint x="-180" y="600" />
              <mxPoint x="-269" y="600" />
            </Array>
          </mxGeometry>
        </mxCell>
        <mxCell id="nkVHdqA7vqXemqnChmF6-32" value="ALTERAR&lt;br&gt;TIPO DO&lt;br&gt;PRODUTO" style="rounded=1;whiteSpace=wrap;html=1;" parent="1" vertex="1">
          <mxGeometry x="-240" y="500" width="120" height="60" as="geometry" />
        </mxCell>
        <mxCell id="clQKY3i6xso6ofaXY0z9-109" style="edgeStyle=orthogonalEdgeStyle;rounded=0;orthogonalLoop=1;jettySize=auto;html=1;entryX=0.5;entryY=0;entryDx=0;entryDy=0;" parent="1" source="nkVHdqA7vqXemqnChmF6-33" target="nkVHdqA7vqXemqnChmF6-31" edge="1">
          <mxGeometry relative="1" as="geometry">
            <Array as="points">
              <mxPoint x="-345" y="415" />
            </Array>
          </mxGeometry>
        </mxCell>
        <mxCell id="clQKY3i6xso6ofaXY0z9-119" style="edgeStyle=orthogonalEdgeStyle;rounded=0;orthogonalLoop=1;jettySize=auto;html=1;entryX=0;entryY=0.5;entryDx=0;entryDy=0;" parent="1" source="nkVHdqA7vqXemqnChmF6-33" target="clQKY3i6xso6ofaXY0z9-83" edge="1">
          <mxGeometry relative="1" as="geometry" />
        </mxCell>
        <mxCell id="nkVHdqA7vqXemqnChmF6-33" value="" style="rhombus;whiteSpace=wrap;html=1;rounded=1;strokeColor=default;fontFamily=Helvetica;fontSize=12;fontColor=default;fillColor=default;" parent="1" vertex="1">
          <mxGeometry x="-285" y="390" width="70" height="50" as="geometry" />
        </mxCell>
        <mxCell id="nkVHdqA7vqXemqnChmF6-37" value="SIM" style="text;strokeColor=none;fillColor=none;align=left;verticalAlign=middle;spacingLeft=4;spacingRight=4;overflow=hidden;points=[[0,0.5],[1,0.5]];portConstraint=eastwest;rotatable=0;whiteSpace=wrap;html=1;fontSize=12;fontFamily=Helvetica;fontColor=default;" parent="1" vertex="1">
          <mxGeometry x="-190" y="395" width="40" height="20" as="geometry" />
        </mxCell>
        <mxCell id="nkVHdqA7vqXemqnChmF6-38" value="PRODUTO EXISTE?" style="text;strokeColor=none;fillColor=none;align=left;verticalAlign=middle;spacingLeft=4;spacingRight=4;overflow=hidden;points=[[0,0.5],[1,0.5]];portConstraint=eastwest;rotatable=0;whiteSpace=wrap;html=1;fontSize=12;fontFamily=Helvetica;fontColor=default;" parent="1" vertex="1">
          <mxGeometry x="-285" y="440" width="80" height="30" as="geometry" />
        </mxCell>
        <mxCell id="nkVHdqA7vqXemqnChmF6-39" value="NÃO" style="text;strokeColor=none;fillColor=none;align=left;verticalAlign=middle;spacingLeft=4;spacingRight=4;overflow=hidden;points=[[0,0.5],[1,0.5]];portConstraint=eastwest;rotatable=0;whiteSpace=wrap;html=1;fontSize=12;fontFamily=Helvetica;fontColor=default;" parent="1" vertex="1">
          <mxGeometry x="-340" y="395" width="40" height="20" as="geometry" />
        </mxCell>
        <mxCell id="nkVHdqA7vqXemqnChmF6-43" value="GRAVAR PRODUTO" style="rounded=1;whiteSpace=wrap;html=1;strokeColor=default;fontFamily=Helvetica;fontSize=12;fontColor=default;fillColor=default;" parent="1" vertex="1">
          <mxGeometry x="-480" y="700" width="120" height="60" as="geometry" />
        </mxCell>
        <mxCell id="nkVHdqA7vqXemqnChmF6-45" value="" style="ellipse;html=1;shape=endState;fillColor=strokeColor;rounded=1;strokeColor=default;fontFamily=Helvetica;fontSize=12;fontColor=default;" parent="1" vertex="1">
          <mxGeometry x="-435" y="790" width="30" height="30" as="geometry" />
        </mxCell>
        <mxCell id="nkVHdqA7vqXemqnChmF6-47" value="FINAL" style="text;strokeColor=none;fillColor=none;align=left;verticalAlign=middle;spacingLeft=4;spacingRight=4;overflow=hidden;points=[[0,0.5],[1,0.5]];portConstraint=eastwest;rotatable=0;whiteSpace=wrap;html=1;fontSize=12;fontFamily=Helvetica;fontColor=default;" parent="1" vertex="1">
          <mxGeometry x="-443" y="820" width="50" height="25" as="geometry" />
        </mxCell>
        <mxCell id="clQKY3i6xso6ofaXY0z9-1" value="" style="shape=folder;fontStyle=1;tabWidth=80;tabHeight=30;tabPosition=left;html=1;boundedLbl=1;whiteSpace=wrap;" parent="1" vertex="1">
          <mxGeometry x="90" y="10" width="900" height="850" as="geometry" />
        </mxCell>
        <mxCell id="clQKY3i6xso6ofaXY0z9-2" value="&lt;b&gt;&lt;font style=&quot;font-size: 14px;&quot;&gt;Funcionário&lt;/font&gt;&lt;/b&gt;" style="text;html=1;strokeColor=none;fillColor=none;align=center;verticalAlign=middle;whiteSpace=wrap;rounded=0;" parent="1" vertex="1">
          <mxGeometry x="-810" y="10" width="60" height="30" as="geometry" />
        </mxCell>
        <mxCell id="clQKY3i6xso6ofaXY0z9-3" value="&lt;b&gt;&lt;font style=&quot;font-size: 14px;&quot;&gt;Cliente&lt;/font&gt;&lt;/b&gt;" style="text;html=1;strokeColor=none;fillColor=none;align=center;verticalAlign=middle;whiteSpace=wrap;rounded=0;" parent="1" vertex="1">
          <mxGeometry x="100" y="10" width="60" height="30" as="geometry" />
        </mxCell>
        <mxCell id="clQKY3i6xso6ofaXY0z9-6" value="INÍCIO" style="text;strokeColor=none;fillColor=none;align=left;verticalAlign=middle;spacingLeft=4;spacingRight=4;overflow=hidden;points=[[0,0.5],[1,0.5]];portConstraint=eastwest;rotatable=0;whiteSpace=wrap;html=1;fontSize=12;fontFamily=Helvetica;fontColor=default;" parent="1" vertex="1">
          <mxGeometry x="175" y="125" width="50" height="25" as="geometry" />
        </mxCell>
        <mxCell id="clQKY3i6xso6ofaXY0z9-7" value="" style="ellipse;html=1;shape=endState;fillColor=strokeColor;rounded=1;strokeColor=default;fontFamily=Helvetica;fontSize=12;fontColor=default;" parent="1" vertex="1">
          <mxGeometry x="405" y="780" width="30" height="30" as="geometry" />
        </mxCell>
        <mxCell id="clQKY3i6xso6ofaXY0z9-8" value="FINAL" style="text;strokeColor=none;fillColor=none;align=left;verticalAlign=middle;spacingLeft=4;spacingRight=4;overflow=hidden;points=[[0,0.5],[1,0.5]];portConstraint=eastwest;rotatable=0;whiteSpace=wrap;html=1;fontSize=12;fontFamily=Helvetica;fontColor=default;" parent="1" vertex="1">
          <mxGeometry x="395" y="820" width="50" height="25" as="geometry" />
        </mxCell>
        <mxCell id="clQKY3i6xso6ofaXY0z9-105" style="edgeStyle=orthogonalEdgeStyle;rounded=0;orthogonalLoop=1;jettySize=auto;html=1;entryX=0;entryY=0.5;entryDx=0;entryDy=0;" parent="1" source="clQKY3i6xso6ofaXY0z9-9" target="clQKY3i6xso6ofaXY0z9-10" edge="1">
          <mxGeometry relative="1" as="geometry" />
        </mxCell>
        <mxCell id="clQKY3i6xso6ofaXY0z9-9" value="CLIENTE FAZ LOGIN" style="rounded=1;whiteSpace=wrap;html=1;" parent="1" vertex="1">
          <mxGeometry x="475" y="290" width="120" height="60" as="geometry" />
        </mxCell>
        <mxCell id="clQKY3i6xso6ofaXY0z9-104" style="edgeStyle=orthogonalEdgeStyle;rounded=0;orthogonalLoop=1;jettySize=auto;html=1;entryX=0.5;entryY=0;entryDx=0;entryDy=0;exitX=0.5;exitY=0;exitDx=0;exitDy=0;" parent="1" source="clQKY3i6xso6ofaXY0z9-10" target="clQKY3i6xso6ofaXY0z9-9" edge="1">
          <mxGeometry relative="1" as="geometry">
            <Array as="points">
              <mxPoint x="735" y="260" />
              <mxPoint x="535" y="260" />
            </Array>
          </mxGeometry>
        </mxCell>
        <mxCell id="clQKY3i6xso6ofaXY0z9-10" value="" style="rhombus;whiteSpace=wrap;html=1;rounded=1;strokeColor=default;fontFamily=Helvetica;fontSize=12;fontColor=default;fillColor=default;" parent="1" vertex="1">
          <mxGeometry x="700" y="295" width="70" height="50" as="geometry" />
        </mxCell>
        <mxCell id="clQKY3i6xso6ofaXY0z9-12" value="LOGIN BEM SUCEDIDO?" style="text;strokeColor=none;fillColor=none;align=left;verticalAlign=middle;spacingLeft=4;spacingRight=4;overflow=hidden;points=[[0,0.5],[1,0.5]];portConstraint=eastwest;rotatable=0;whiteSpace=wrap;html=1;fontSize=12;fontFamily=Helvetica;fontColor=default;" parent="1" vertex="1">
          <mxGeometry x="700" y="345" width="80" height="30" as="geometry" />
        </mxCell>
        <mxCell id="clQKY3i6xso6ofaXY0z9-14" value="NÃO" style="text;strokeColor=none;fillColor=none;align=left;verticalAlign=middle;spacingLeft=4;spacingRight=4;overflow=hidden;points=[[0,0.5],[1,0.5]];portConstraint=eastwest;rotatable=0;whiteSpace=wrap;html=1;fontSize=12;fontFamily=Helvetica;fontColor=default;" parent="1" vertex="1">
          <mxGeometry x="620" y="240" width="40" height="20" as="geometry" />
        </mxCell>
        <mxCell id="clQKY3i6xso6ofaXY0z9-15" value="" style="endArrow=open;startArrow=none;endFill=0;startFill=0;endSize=8;html=1;verticalAlign=bottom;labelBackgroundColor=none;strokeWidth=1;rounded=0;entryX=0.5;entryY=0;entryDx=0;entryDy=0;exitX=1;exitY=0.5;exitDx=0;exitDy=0;" parent="1" source="clQKY3i6xso6ofaXY0z9-10" target="clQKY3i6xso6ofaXY0z9-17" edge="1">
          <mxGeometry width="160" relative="1" as="geometry">
            <mxPoint x="490" y="165" as="sourcePoint" />
            <mxPoint x="550" y="170" as="targetPoint" />
            <Array as="points">
              <mxPoint x="840" y="320" />
            </Array>
          </mxGeometry>
        </mxCell>
        <mxCell id="clQKY3i6xso6ofaXY0z9-39" style="edgeStyle=orthogonalEdgeStyle;rounded=0;orthogonalLoop=1;jettySize=auto;html=1;" parent="1" source="clQKY3i6xso6ofaXY0z9-17" target="clQKY3i6xso6ofaXY0z9-18" edge="1">
          <mxGeometry relative="1" as="geometry" />
        </mxCell>
        <mxCell id="clQKY3i6xso6ofaXY0z9-17" value="CONSULTAR&lt;br&gt;CARDÁPIO" style="rounded=1;whiteSpace=wrap;html=1;" parent="1" vertex="1">
          <mxGeometry x="780" y="500" width="120" height="60" as="geometry" />
        </mxCell>
        <mxCell id="clQKY3i6xso6ofaXY0z9-40" style="edgeStyle=orthogonalEdgeStyle;rounded=0;orthogonalLoop=1;jettySize=auto;html=1;entryX=1;entryY=0.5;entryDx=0;entryDy=0;" parent="1" source="clQKY3i6xso6ofaXY0z9-18" target="clQKY3i6xso6ofaXY0z9-38" edge="1">
          <mxGeometry relative="1" as="geometry" />
        </mxCell>
        <mxCell id="clQKY3i6xso6ofaXY0z9-18" value="FAZER PEDIDO" style="rounded=1;whiteSpace=wrap;html=1;" parent="1" vertex="1">
          <mxGeometry x="780" y="610" width="120" height="60" as="geometry" />
        </mxCell>
        <mxCell id="clQKY3i6xso6ofaXY0z9-72" style="edgeStyle=orthogonalEdgeStyle;rounded=0;orthogonalLoop=1;jettySize=auto;html=1;entryX=0.5;entryY=0;entryDx=0;entryDy=0;" parent="1" source="clQKY3i6xso6ofaXY0z9-19" target="clQKY3i6xso6ofaXY0z9-17" edge="1">
          <mxGeometry relative="1" as="geometry">
            <Array as="points">
              <mxPoint x="634" y="480" />
              <mxPoint x="840" y="480" />
            </Array>
          </mxGeometry>
        </mxCell>
        <mxCell id="clQKY3i6xso6ofaXY0z9-19" value="FAZER CONTATO" style="rounded=1;whiteSpace=wrap;html=1;" parent="1" vertex="1">
          <mxGeometry x="574" y="390" width="120" height="60" as="geometry" />
        </mxCell>
        <mxCell id="clQKY3i6xso6ofaXY0z9-42" style="edgeStyle=orthogonalEdgeStyle;rounded=0;orthogonalLoop=1;jettySize=auto;html=1;" parent="1" source="clQKY3i6xso6ofaXY0z9-20" target="clQKY3i6xso6ofaXY0z9-37" edge="1">
          <mxGeometry relative="1" as="geometry" />
        </mxCell>
        <mxCell id="clQKY3i6xso6ofaXY0z9-49" style="edgeStyle=orthogonalEdgeStyle;rounded=0;orthogonalLoop=1;jettySize=auto;html=1;entryX=0;entryY=0.5;entryDx=0;entryDy=0;" parent="1" source="clQKY3i6xso6ofaXY0z9-20" target="clQKY3i6xso6ofaXY0z9-17" edge="1">
          <mxGeometry relative="1" as="geometry">
            <Array as="points">
              <mxPoint x="420" y="530" />
            </Array>
          </mxGeometry>
        </mxCell>
        <mxCell id="clQKY3i6xso6ofaXY0z9-20" value="ACESSAR PAGAMENTO" style="rounded=1;whiteSpace=wrap;html=1;" parent="1" vertex="1">
          <mxGeometry x="360" y="585" width="120" height="60" as="geometry" />
        </mxCell>
        <mxCell id="clQKY3i6xso6ofaXY0z9-67" style="edgeStyle=orthogonalEdgeStyle;rounded=0;orthogonalLoop=1;jettySize=auto;html=1;entryX=0.5;entryY=0;entryDx=0;entryDy=0;exitX=0.5;exitY=1;exitDx=0;exitDy=0;" parent="1" source="clQKY3i6xso6ofaXY0z9-21" target="clQKY3i6xso6ofaXY0z9-24" edge="1">
          <mxGeometry relative="1" as="geometry" />
        </mxCell>
        <mxCell id="clQKY3i6xso6ofaXY0z9-21" value="CLIENTE FAZ CADASTRO" style="rounded=1;whiteSpace=wrap;html=1;" parent="1" vertex="1">
          <mxGeometry x="140" y="270" width="120" height="60" as="geometry" />
        </mxCell>
        <mxCell id="clQKY3i6xso6ofaXY0z9-26" style="edgeStyle=orthogonalEdgeStyle;rounded=0;orthogonalLoop=1;jettySize=auto;html=1;entryX=0;entryY=0.5;entryDx=0;entryDy=0;exitX=0;exitY=0.5;exitDx=0;exitDy=0;" parent="1" source="clQKY3i6xso6ofaXY0z9-24" target="clQKY3i6xso6ofaXY0z9-21" edge="1">
          <mxGeometry relative="1" as="geometry">
            <Array as="points">
              <mxPoint x="110" y="430" />
              <mxPoint x="110" y="300" />
            </Array>
          </mxGeometry>
        </mxCell>
        <mxCell id="clQKY3i6xso6ofaXY0z9-28" style="edgeStyle=orthogonalEdgeStyle;rounded=0;orthogonalLoop=1;jettySize=auto;html=1;entryX=0.5;entryY=1;entryDx=0;entryDy=0;" parent="1" source="clQKY3i6xso6ofaXY0z9-24" target="clQKY3i6xso6ofaXY0z9-9" edge="1">
          <mxGeometry relative="1" as="geometry" />
        </mxCell>
        <mxCell id="clQKY3i6xso6ofaXY0z9-24" value="" style="rhombus;whiteSpace=wrap;html=1;rounded=1;strokeColor=default;fontFamily=Helvetica;fontSize=12;fontColor=default;fillColor=default;" parent="1" vertex="1">
          <mxGeometry x="280" y="405" width="70" height="50" as="geometry" />
        </mxCell>
        <mxCell id="clQKY3i6xso6ofaXY0z9-27" value="NÃO" style="text;strokeColor=none;fillColor=none;align=left;verticalAlign=middle;spacingLeft=4;spacingRight=4;overflow=hidden;points=[[0,0.5],[1,0.5]];portConstraint=eastwest;rotatable=0;whiteSpace=wrap;html=1;fontSize=12;fontFamily=Helvetica;fontColor=default;" parent="1" vertex="1">
          <mxGeometry x="170" y="410" width="40" height="20" as="geometry" />
        </mxCell>
        <mxCell id="clQKY3i6xso6ofaXY0z9-29" value="SIM" style="text;strokeColor=none;fillColor=none;align=left;verticalAlign=middle;spacingLeft=4;spacingRight=4;overflow=hidden;points=[[0,0.5],[1,0.5]];portConstraint=eastwest;rotatable=0;whiteSpace=wrap;html=1;fontSize=12;fontFamily=Helvetica;fontColor=default;" parent="1" vertex="1">
          <mxGeometry x="410" y="410" width="40" height="20" as="geometry" />
        </mxCell>
        <mxCell id="clQKY3i6xso6ofaXY0z9-33" style="edgeStyle=orthogonalEdgeStyle;rounded=0;orthogonalLoop=1;jettySize=auto;html=1;entryX=1;entryY=0.5;entryDx=0;entryDy=0;exitX=0;exitY=0.5;exitDx=0;exitDy=0;" parent="1" source="clQKY3i6xso6ofaXY0z9-30" target="clQKY3i6xso6ofaXY0z9-21" edge="1">
          <mxGeometry relative="1" as="geometry">
            <mxPoint x="800" y="470" as="targetPoint" />
            <Array as="points">
              <mxPoint x="300" y="260" />
              <mxPoint x="300" y="300" />
            </Array>
          </mxGeometry>
        </mxCell>
        <mxCell id="clQKY3i6xso6ofaXY0z9-35" style="edgeStyle=orthogonalEdgeStyle;rounded=0;orthogonalLoop=1;jettySize=auto;html=1;entryX=0;entryY=0.5;entryDx=0;entryDy=0;exitX=0.5;exitY=1;exitDx=0;exitDy=0;" parent="1" source="clQKY3i6xso6ofaXY0z9-30" target="clQKY3i6xso6ofaXY0z9-9" edge="1">
          <mxGeometry relative="1" as="geometry" />
        </mxCell>
        <mxCell id="clQKY3i6xso6ofaXY0z9-30" value="" style="rhombus;whiteSpace=wrap;html=1;rounded=1;strokeColor=default;fontFamily=Helvetica;fontSize=12;fontColor=default;fillColor=default;" parent="1" vertex="1">
          <mxGeometry x="325" y="235" width="70" height="50" as="geometry" />
        </mxCell>
        <mxCell id="clQKY3i6xso6ofaXY0z9-31" value="QUER FAZER LOGIN?" style="text;strokeColor=none;fillColor=none;align=left;verticalAlign=middle;spacingLeft=4;spacingRight=4;overflow=hidden;points=[[0,0.5],[1,0.5]];portConstraint=eastwest;rotatable=0;whiteSpace=wrap;html=1;fontSize=12;fontFamily=Helvetica;fontColor=default;" parent="1" vertex="1">
          <mxGeometry x="530" y="110" width="95" height="30" as="geometry" />
        </mxCell>
        <mxCell id="clQKY3i6xso6ofaXY0z9-16" value="SIM" style="text;strokeColor=none;fillColor=none;align=left;verticalAlign=middle;spacingLeft=4;spacingRight=4;overflow=hidden;points=[[0,0.5],[1,0.5]];portConstraint=eastwest;rotatable=0;whiteSpace=wrap;html=1;fontSize=12;fontFamily=Helvetica;fontColor=default;" parent="1" vertex="1">
          <mxGeometry x="760" y="300" width="40" height="20" as="geometry" />
        </mxCell>
        <mxCell id="clQKY3i6xso6ofaXY0z9-34" value="NÃO" style="text;strokeColor=none;fillColor=none;align=left;verticalAlign=middle;spacingLeft=4;spacingRight=4;overflow=hidden;points=[[0,0.5],[1,0.5]];portConstraint=eastwest;rotatable=0;whiteSpace=wrap;html=1;fontSize=12;fontFamily=Helvetica;fontColor=default;" parent="1" vertex="1">
          <mxGeometry x="760" y="140" width="40" height="20" as="geometry" />
        </mxCell>
        <mxCell id="clQKY3i6xso6ofaXY0z9-36" value="SIM" style="text;strokeColor=none;fillColor=none;align=left;verticalAlign=middle;spacingLeft=4;spacingRight=4;overflow=hidden;points=[[0,0.5],[1,0.5]];portConstraint=eastwest;rotatable=0;whiteSpace=wrap;html=1;fontSize=12;fontFamily=Helvetica;fontColor=default;" parent="1" vertex="1">
          <mxGeometry x="415" y="300" width="40" height="20" as="geometry" />
        </mxCell>
        <mxCell id="clQKY3i6xso6ofaXY0z9-43" style="edgeStyle=orthogonalEdgeStyle;rounded=0;orthogonalLoop=1;jettySize=auto;html=1;entryX=0.5;entryY=0;entryDx=0;entryDy=0;" parent="1" source="clQKY3i6xso6ofaXY0z9-37" target="clQKY3i6xso6ofaXY0z9-7" edge="1">
          <mxGeometry relative="1" as="geometry" />
        </mxCell>
        <mxCell id="clQKY3i6xso6ofaXY0z9-74" style="edgeStyle=orthogonalEdgeStyle;rounded=0;orthogonalLoop=1;jettySize=auto;html=1;entryX=0;entryY=0.5;entryDx=0;entryDy=0;" parent="1" source="clQKY3i6xso6ofaXY0z9-37" target="clQKY3i6xso6ofaXY0z9-17" edge="1">
          <mxGeometry relative="1" as="geometry">
            <mxPoint x="420" y="530" as="targetPoint" />
            <Array as="points">
              <mxPoint x="330" y="715" />
              <mxPoint x="330" y="530" />
            </Array>
          </mxGeometry>
        </mxCell>
        <mxCell id="clQKY3i6xso6ofaXY0z9-37" value="" style="rhombus;whiteSpace=wrap;html=1;rounded=1;strokeColor=default;fontFamily=Helvetica;fontSize=12;fontColor=default;fillColor=default;" parent="1" vertex="1">
          <mxGeometry x="385" y="690" width="70" height="50" as="geometry" />
        </mxCell>
        <mxCell id="clQKY3i6xso6ofaXY0z9-41" style="edgeStyle=orthogonalEdgeStyle;rounded=0;orthogonalLoop=1;jettySize=auto;html=1;entryX=1;entryY=0.5;entryDx=0;entryDy=0;" parent="1" source="clQKY3i6xso6ofaXY0z9-38" target="clQKY3i6xso6ofaXY0z9-20" edge="1">
          <mxGeometry relative="1" as="geometry">
            <Array as="points">
              <mxPoint x="530" y="625" />
              <mxPoint x="530" y="615" />
            </Array>
          </mxGeometry>
        </mxCell>
        <mxCell id="clQKY3i6xso6ofaXY0z9-46" style="edgeStyle=orthogonalEdgeStyle;rounded=0;orthogonalLoop=1;jettySize=auto;html=1;entryX=0;entryY=0.5;entryDx=0;entryDy=0;exitX=0.5;exitY=0;exitDx=0;exitDy=0;" parent="1" source="clQKY3i6xso6ofaXY0z9-38" target="clQKY3i6xso6ofaXY0z9-17" edge="1">
          <mxGeometry relative="1" as="geometry">
            <Array as="points">
              <mxPoint x="615" y="530" />
            </Array>
          </mxGeometry>
        </mxCell>
        <mxCell id="clQKY3i6xso6ofaXY0z9-38" value="" style="rhombus;whiteSpace=wrap;html=1;rounded=1;strokeColor=default;fontFamily=Helvetica;fontSize=12;fontColor=default;fillColor=default;" parent="1" vertex="1">
          <mxGeometry x="580" y="600" width="70" height="50" as="geometry" />
        </mxCell>
        <mxCell id="clQKY3i6xso6ofaXY0z9-44" value="SIM" style="text;strokeColor=none;fillColor=none;align=left;verticalAlign=middle;spacingLeft=4;spacingRight=4;overflow=hidden;points=[[0,0.5],[1,0.5]];portConstraint=eastwest;rotatable=0;whiteSpace=wrap;html=1;fontSize=12;fontFamily=Helvetica;fontColor=default;" parent="1" vertex="1">
          <mxGeometry x="514" y="590" width="40" height="20" as="geometry" />
        </mxCell>
        <mxCell id="clQKY3i6xso6ofaXY0z9-45" value="SIM" style="text;strokeColor=none;fillColor=none;align=left;verticalAlign=middle;spacingLeft=4;spacingRight=4;overflow=hidden;points=[[0,0.5],[1,0.5]];portConstraint=eastwest;rotatable=0;whiteSpace=wrap;html=1;fontSize=12;fontFamily=Helvetica;fontColor=default;" parent="1" vertex="1">
          <mxGeometry x="420" y="740" width="40" height="20" as="geometry" />
        </mxCell>
        <mxCell id="clQKY3i6xso6ofaXY0z9-48" value="NÃO" style="text;strokeColor=none;fillColor=none;align=left;verticalAlign=middle;spacingLeft=4;spacingRight=4;overflow=hidden;points=[[0,0.5],[1,0.5]];portConstraint=eastwest;rotatable=0;whiteSpace=wrap;html=1;fontSize=12;fontFamily=Helvetica;fontColor=default;" parent="1" vertex="1">
          <mxGeometry x="580" y="540" width="40" height="20" as="geometry" />
        </mxCell>
        <mxCell id="clQKY3i6xso6ofaXY0z9-51" style="edgeStyle=orthogonalEdgeStyle;rounded=0;orthogonalLoop=1;jettySize=auto;html=1;exitX=0;exitY=0.5;exitDx=0;exitDy=0;entryX=1;entryY=0.5;entryDx=0;entryDy=0;" parent="1" source="clQKY3i6xso6ofaXY0z9-56" target="clQKY3i6xso6ofaXY0z9-19" edge="1">
          <mxGeometry relative="1" as="geometry">
            <mxPoint x="840" y="400" as="sourcePoint" />
            <mxPoint x="700" y="425" as="targetPoint" />
            <Array as="points" />
          </mxGeometry>
        </mxCell>
        <mxCell id="clQKY3i6xso6ofaXY0z9-53" value="PEDIDO BEM SUCEDIDO?" style="text;strokeColor=none;fillColor=none;align=left;verticalAlign=middle;spacingLeft=4;spacingRight=4;overflow=hidden;points=[[0,0.5],[1,0.5]];portConstraint=eastwest;rotatable=0;whiteSpace=wrap;html=1;fontSize=12;fontFamily=Helvetica;fontColor=default;" parent="1" vertex="1">
          <mxGeometry x="570" y="650" width="90" height="30" as="geometry" />
        </mxCell>
        <mxCell id="clQKY3i6xso6ofaXY0z9-54" value="PAGAMENTO BEM SUCEDIDO?" style="text;strokeColor=none;fillColor=none;align=left;verticalAlign=middle;spacingLeft=4;spacingRight=4;overflow=hidden;points=[[0,0.5],[1,0.5]];portConstraint=eastwest;rotatable=0;whiteSpace=wrap;html=1;fontSize=12;fontFamily=Helvetica;fontColor=default;" parent="1" vertex="1">
          <mxGeometry x="455" y="710" width="115" height="30" as="geometry" />
        </mxCell>
        <mxCell id="clQKY3i6xso6ofaXY0z9-106" style="edgeStyle=orthogonalEdgeStyle;rounded=0;orthogonalLoop=1;jettySize=auto;html=1;entryX=0;entryY=0.5;entryDx=0;entryDy=0;" parent="1" source="clQKY3i6xso6ofaXY0z9-4" target="clQKY3i6xso6ofaXY0z9-57" edge="1">
          <mxGeometry relative="1" as="geometry" />
        </mxCell>
        <object label="" Início="" id="clQKY3i6xso6ofaXY0z9-4">
          <mxCell style="ellipse;fillColor=strokeColor;html=1;" parent="1" vertex="1">
            <mxGeometry x="185" y="150" width="30" height="30" as="geometry" />
          </mxCell>
        </object>
        <mxCell id="clQKY3i6xso6ofaXY0z9-63" style="edgeStyle=orthogonalEdgeStyle;rounded=0;orthogonalLoop=1;jettySize=auto;html=1;entryX=0.5;entryY=0;entryDx=0;entryDy=0;" parent="1" source="clQKY3i6xso6ofaXY0z9-56" target="clQKY3i6xso6ofaXY0z9-17" edge="1">
          <mxGeometry relative="1" as="geometry" />
        </mxCell>
        <mxCell id="clQKY3i6xso6ofaXY0z9-103" style="edgeStyle=orthogonalEdgeStyle;rounded=0;orthogonalLoop=1;jettySize=auto;html=1;entryX=0.5;entryY=0;entryDx=0;entryDy=0;" parent="1" source="clQKY3i6xso6ofaXY0z9-57" target="clQKY3i6xso6ofaXY0z9-30" edge="1">
          <mxGeometry relative="1" as="geometry">
            <Array as="points">
              <mxPoint x="565" y="210" />
              <mxPoint x="360" y="210" />
            </Array>
          </mxGeometry>
        </mxCell>
        <mxCell id="clQKY3i6xso6ofaXY0z9-57" value="" style="rhombus;whiteSpace=wrap;html=1;rounded=1;strokeColor=default;fontFamily=Helvetica;fontSize=12;fontColor=default;fillColor=default;" parent="1" vertex="1">
          <mxGeometry x="530" y="140" width="70" height="50" as="geometry" />
        </mxCell>
        <mxCell id="clQKY3i6xso6ofaXY0z9-61" value="SIM" style="text;strokeColor=none;fillColor=none;align=left;verticalAlign=middle;spacingLeft=4;spacingRight=4;overflow=hidden;points=[[0,0.5],[1,0.5]];portConstraint=eastwest;rotatable=0;whiteSpace=wrap;html=1;fontSize=12;fontFamily=Helvetica;fontColor=default;" parent="1" vertex="1">
          <mxGeometry x="470" y="190" width="40" height="20" as="geometry" />
        </mxCell>
        <mxCell id="clQKY3i6xso6ofaXY0z9-64" value="É CADASTRADO?" style="text;strokeColor=none;fillColor=none;align=left;verticalAlign=middle;spacingLeft=4;spacingRight=4;overflow=hidden;points=[[0,0.5],[1,0.5]];portConstraint=eastwest;rotatable=0;whiteSpace=wrap;html=1;fontSize=12;fontFamily=Helvetica;fontColor=default;" parent="1" vertex="1">
          <mxGeometry x="380" y="230" width="116" height="30" as="geometry" />
        </mxCell>
        <mxCell id="clQKY3i6xso6ofaXY0z9-65" value="NÃO" style="text;strokeColor=none;fillColor=none;align=left;verticalAlign=middle;spacingLeft=4;spacingRight=4;overflow=hidden;points=[[0,0.5],[1,0.5]];portConstraint=eastwest;rotatable=0;whiteSpace=wrap;html=1;fontSize=12;fontFamily=Helvetica;fontColor=default;" parent="1" vertex="1">
          <mxGeometry x="270" y="235" width="40" height="20" as="geometry" />
        </mxCell>
        <mxCell id="clQKY3i6xso6ofaXY0z9-66" value="CADASTRO BEM SUCEDIDO?" style="text;strokeColor=none;fillColor=none;align=left;verticalAlign=middle;spacingLeft=4;spacingRight=4;overflow=hidden;points=[[0,0.5],[1,0.5]];portConstraint=eastwest;rotatable=0;whiteSpace=wrap;html=1;fontSize=12;fontFamily=Helvetica;fontColor=default;" parent="1" vertex="1">
          <mxGeometry x="265" y="455" width="115" height="30" as="geometry" />
        </mxCell>
        <mxCell id="clQKY3i6xso6ofaXY0z9-68" value="" style="edgeStyle=orthogonalEdgeStyle;rounded=0;orthogonalLoop=1;jettySize=auto;html=1;entryX=0.5;entryY=0;entryDx=0;entryDy=0;" parent="1" source="clQKY3i6xso6ofaXY0z9-57" target="clQKY3i6xso6ofaXY0z9-56" edge="1">
          <mxGeometry relative="1" as="geometry">
            <mxPoint x="600" y="165" as="sourcePoint" />
            <mxPoint x="840" y="470" as="targetPoint" />
          </mxGeometry>
        </mxCell>
        <mxCell id="clQKY3i6xso6ofaXY0z9-56" value="" style="rhombus;whiteSpace=wrap;html=1;rounded=1;strokeColor=default;fontFamily=Helvetica;fontSize=12;fontColor=default;fillColor=default;" parent="1" vertex="1">
          <mxGeometry x="805" y="395" width="70" height="50" as="geometry" />
        </mxCell>
        <mxCell id="clQKY3i6xso6ofaXY0z9-69" value="QUER FAZER CONTATO?" style="text;strokeColor=none;fillColor=none;align=left;verticalAlign=middle;spacingLeft=4;spacingRight=4;overflow=hidden;points=[[0,0.5],[1,0.5]];portConstraint=eastwest;rotatable=0;whiteSpace=wrap;html=1;fontSize=12;fontFamily=Helvetica;fontColor=default;" parent="1" vertex="1">
          <mxGeometry x="860" y="375" width="95" height="30" as="geometry" />
        </mxCell>
        <mxCell id="clQKY3i6xso6ofaXY0z9-70" value="SIM" style="text;strokeColor=none;fillColor=none;align=left;verticalAlign=middle;spacingLeft=4;spacingRight=4;overflow=hidden;points=[[0,0.5],[1,0.5]];portConstraint=eastwest;rotatable=0;whiteSpace=wrap;html=1;fontSize=12;fontFamily=Helvetica;fontColor=default;" parent="1" vertex="1">
          <mxGeometry x="740" y="395" width="40" height="20" as="geometry" />
        </mxCell>
        <mxCell id="clQKY3i6xso6ofaXY0z9-73" value="NÃO" style="text;strokeColor=none;fillColor=none;align=left;verticalAlign=middle;spacingLeft=4;spacingRight=4;overflow=hidden;points=[[0,0.5],[1,0.5]];portConstraint=eastwest;rotatable=0;whiteSpace=wrap;html=1;fontSize=12;fontFamily=Helvetica;fontColor=default;" parent="1" vertex="1">
          <mxGeometry x="840" y="455" width="40" height="20" as="geometry" />
        </mxCell>
        <mxCell id="clQKY3i6xso6ofaXY0z9-75" value="NÃO" style="text;strokeColor=none;fillColor=none;align=left;verticalAlign=middle;spacingLeft=4;spacingRight=4;overflow=hidden;points=[[0,0.5],[1,0.5]];portConstraint=eastwest;rotatable=0;whiteSpace=wrap;html=1;fontSize=12;fontFamily=Helvetica;fontColor=default;" parent="1" vertex="1">
          <mxGeometry x="295" y="615" width="40" height="20" as="geometry" />
        </mxCell>
        <mxCell id="clQKY3i6xso6ofaXY0z9-78" style="edgeStyle=orthogonalEdgeStyle;rounded=0;orthogonalLoop=1;jettySize=auto;html=1;entryX=0;entryY=0.5;entryDx=0;entryDy=0;" parent="1" source="clQKY3i6xso6ofaXY0z9-76" target="nkVHdqA7vqXemqnChmF6-10" edge="1">
          <mxGeometry relative="1" as="geometry" />
        </mxCell>
        <mxCell id="clQKY3i6xso6ofaXY0z9-117" style="edgeStyle=orthogonalEdgeStyle;rounded=0;orthogonalLoop=1;jettySize=auto;html=1;entryX=1;entryY=0.5;entryDx=0;entryDy=0;" parent="1" source="clQKY3i6xso6ofaXY0z9-76" target="nkVHdqA7vqXemqnChmF6-9" edge="1">
          <mxGeometry relative="1" as="geometry" />
        </mxCell>
        <mxCell id="clQKY3i6xso6ofaXY0z9-76" value="" style="rhombus;whiteSpace=wrap;html=1;rounded=1;strokeColor=default;fontFamily=Helvetica;fontSize=12;fontColor=default;fillColor=default;" parent="1" vertex="1">
          <mxGeometry x="-525" y="225" width="70" height="50" as="geometry" />
        </mxCell>
        <mxCell id="clQKY3i6xso6ofaXY0z9-80" value="QUER CONSULTAR TIPO DE PRODUTO?" style="text;strokeColor=none;fillColor=none;align=left;verticalAlign=middle;spacingLeft=4;spacingRight=4;overflow=hidden;points=[[0,0.5],[1,0.5]];portConstraint=eastwest;rotatable=0;whiteSpace=wrap;html=1;fontSize=12;fontFamily=Helvetica;fontColor=default;" parent="1" vertex="1">
          <mxGeometry x="-530" y="270" width="90" height="65" as="geometry" />
        </mxCell>
        <mxCell id="clQKY3i6xso6ofaXY0z9-81" value="SIM" style="text;strokeColor=none;fillColor=none;align=left;verticalAlign=middle;spacingLeft=4;spacingRight=4;overflow=hidden;points=[[0,0.5],[1,0.5]];portConstraint=eastwest;rotatable=0;whiteSpace=wrap;html=1;fontSize=12;fontFamily=Helvetica;fontColor=default;" parent="1" vertex="1">
          <mxGeometry x="-420" y="270" width="40" height="20" as="geometry" />
        </mxCell>
        <mxCell id="clQKY3i6xso6ofaXY0z9-82" value="NÃO" style="text;strokeColor=none;fillColor=none;align=left;verticalAlign=middle;spacingLeft=4;spacingRight=4;overflow=hidden;points=[[0,0.5],[1,0.5]];portConstraint=eastwest;rotatable=0;whiteSpace=wrap;html=1;fontSize=12;fontFamily=Helvetica;fontColor=default;" parent="1" vertex="1">
          <mxGeometry x="-600" y="265" width="40" height="20" as="geometry" />
        </mxCell>
        <mxCell id="clQKY3i6xso6ofaXY0z9-85" style="edgeStyle=orthogonalEdgeStyle;rounded=0;orthogonalLoop=1;jettySize=auto;html=1;entryX=0.5;entryY=0;entryDx=0;entryDy=0;" parent="1" source="clQKY3i6xso6ofaXY0z9-83" target="nkVHdqA7vqXemqnChmF6-32" edge="1">
          <mxGeometry relative="1" as="geometry" />
        </mxCell>
        <mxCell id="clQKY3i6xso6ofaXY0z9-87" style="edgeStyle=orthogonalEdgeStyle;rounded=0;orthogonalLoop=1;jettySize=auto;html=1;exitX=1;exitY=0.5;exitDx=0;exitDy=0;" parent="1" source="clQKY3i6xso6ofaXY0z9-83" edge="1">
          <mxGeometry relative="1" as="geometry">
            <mxPoint x="-210" y="660" as="targetPoint" />
            <Array as="points">
              <mxPoint x="-40" y="415" />
              <mxPoint x="-40" y="630" />
              <mxPoint x="-210" y="630" />
            </Array>
          </mxGeometry>
        </mxCell>
        <mxCell id="clQKY3i6xso6ofaXY0z9-83" value="" style="rhombus;whiteSpace=wrap;html=1;rounded=1;strokeColor=default;fontFamily=Helvetica;fontSize=12;fontColor=default;fillColor=default;" parent="1" vertex="1">
          <mxGeometry x="-120" y="390" width="70" height="50" as="geometry" />
        </mxCell>
        <mxCell id="clQKY3i6xso6ofaXY0z9-84" value="QUER ALTERAR O TIPO DE PRODUTO?" style="text;strokeColor=none;fillColor=none;align=left;verticalAlign=middle;spacingLeft=4;spacingRight=4;overflow=hidden;points=[[0,0.5],[1,0.5]];portConstraint=eastwest;rotatable=0;whiteSpace=wrap;html=1;fontSize=12;fontFamily=Helvetica;fontColor=default;" parent="1" vertex="1">
          <mxGeometry x="-120" y="340" width="110" height="65" as="geometry" />
        </mxCell>
        <mxCell id="clQKY3i6xso6ofaXY0z9-86" value="SIM" style="text;strokeColor=none;fillColor=none;align=left;verticalAlign=middle;spacingLeft=4;spacingRight=4;overflow=hidden;points=[[0,0.5],[1,0.5]];portConstraint=eastwest;rotatable=0;whiteSpace=wrap;html=1;fontSize=12;fontFamily=Helvetica;fontColor=default;" parent="1" vertex="1">
          <mxGeometry x="-160" y="450" width="40" height="20" as="geometry" />
        </mxCell>
        <mxCell id="clQKY3i6xso6ofaXY0z9-88" value="NÃO" style="text;strokeColor=none;fillColor=none;align=left;verticalAlign=middle;spacingLeft=4;spacingRight=4;overflow=hidden;points=[[0,0.5],[1,0.5]];portConstraint=eastwest;rotatable=0;whiteSpace=wrap;html=1;fontSize=12;fontFamily=Helvetica;fontColor=default;" parent="1" vertex="1">
          <mxGeometry x="-40" y="520" width="40" height="20" as="geometry" />
        </mxCell>
        <mxCell id="clQKY3i6xso6ofaXY0z9-112" style="edgeStyle=orthogonalEdgeStyle;rounded=0;orthogonalLoop=1;jettySize=auto;html=1;" parent="1" source="clQKY3i6xso6ofaXY0z9-89" edge="1">
          <mxGeometry relative="1" as="geometry">
            <mxPoint x="-570" y="660" as="targetPoint" />
          </mxGeometry>
        </mxCell>
        <mxCell id="clQKY3i6xso6ofaXY0z9-89" value="ALTERAR&lt;br&gt;TIPO DO&lt;br&gt;PRODUTO" style="rounded=1;whiteSpace=wrap;html=1;" parent="1" vertex="1">
          <mxGeometry x="-630" y="500" width="120" height="60" as="geometry" />
        </mxCell>
        <mxCell id="clQKY3i6xso6ofaXY0z9-97" style="edgeStyle=orthogonalEdgeStyle;rounded=0;orthogonalLoop=1;jettySize=auto;html=1;exitX=1;exitY=0.5;exitDx=0;exitDy=0;" parent="1" source="clQKY3i6xso6ofaXY0z9-98" edge="1">
          <mxGeometry relative="1" as="geometry">
            <mxPoint x="-470" y="660" as="targetPoint" />
            <Array as="points">
              <mxPoint x="-430" y="425" />
              <mxPoint x="-430" y="605" />
              <mxPoint x="-470" y="605" />
            </Array>
            <mxPoint x="-440" y="390" as="sourcePoint" />
          </mxGeometry>
        </mxCell>
        <mxCell id="clQKY3i6xso6ofaXY0z9-102" style="edgeStyle=orthogonalEdgeStyle;rounded=0;orthogonalLoop=1;jettySize=auto;html=1;entryX=0.5;entryY=0;entryDx=0;entryDy=0;" parent="1" source="clQKY3i6xso6ofaXY0z9-98" target="clQKY3i6xso6ofaXY0z9-89" edge="1">
          <mxGeometry relative="1" as="geometry" />
        </mxCell>
        <mxCell id="clQKY3i6xso6ofaXY0z9-98" value="" style="rhombus;whiteSpace=wrap;html=1;rounded=1;strokeColor=default;fontFamily=Helvetica;fontSize=12;fontColor=default;fillColor=default;" parent="1" vertex="1">
          <mxGeometry x="-525" y="400" width="70" height="50" as="geometry" />
        </mxCell>
        <mxCell id="clQKY3i6xso6ofaXY0z9-99" value="SIM" style="text;strokeColor=none;fillColor=none;align=left;verticalAlign=middle;spacingLeft=4;spacingRight=4;overflow=hidden;points=[[0,0.5],[1,0.5]];portConstraint=eastwest;rotatable=0;whiteSpace=wrap;html=1;fontSize=12;fontFamily=Helvetica;fontColor=default;" parent="1" vertex="1">
          <mxGeometry x="-550" y="455" width="40" height="20" as="geometry" />
        </mxCell>
        <mxCell id="clQKY3i6xso6ofaXY0z9-100" value="NÃO" style="text;strokeColor=none;fillColor=none;align=left;verticalAlign=middle;spacingLeft=4;spacingRight=4;overflow=hidden;points=[[0,0.5],[1,0.5]];portConstraint=eastwest;rotatable=0;whiteSpace=wrap;html=1;fontSize=12;fontFamily=Helvetica;fontColor=default;" parent="1" vertex="1">
          <mxGeometry x="-470" y="510" width="40" height="20" as="geometry" />
        </mxCell>
        <mxCell id="clQKY3i6xso6ofaXY0z9-101" value="QUER ALTERAR O PRODUTO?" style="text;strokeColor=none;fillColor=none;align=left;verticalAlign=middle;spacingLeft=4;spacingRight=4;overflow=hidden;points=[[0,0.5],[1,0.5]];portConstraint=eastwest;rotatable=0;whiteSpace=wrap;html=1;fontSize=12;fontFamily=Helvetica;fontColor=default;" parent="1" vertex="1">
          <mxGeometry x="-540" y="350" width="110" height="65" as="geometry" />
        </mxCell>
        <mxCell id="clQKY3i6xso6ofaXY0z9-110" style="edgeStyle=orthogonalEdgeStyle;rounded=0;orthogonalLoop=1;jettySize=auto;html=1;exitX=0.5;exitY=1;exitDx=0;exitDy=0;entryX=0.5;entryY=0;entryDx=0;entryDy=0;" parent="1" target="nkVHdqA7vqXemqnChmF6-43" edge="1">
          <mxGeometry relative="1" as="geometry">
            <mxPoint x="-420.5" y="765" as="targetPoint" />
            <mxPoint x="-420.5" y="665" as="sourcePoint" />
            <Array as="points" />
          </mxGeometry>
        </mxCell>
        <mxCell id="clQKY3i6xso6ofaXY0z9-111" style="edgeStyle=orthogonalEdgeStyle;rounded=0;orthogonalLoop=1;jettySize=auto;html=1;exitX=0.5;exitY=1;exitDx=0;exitDy=0;entryX=0.5;entryY=0;entryDx=0;entryDy=0;" parent="1" target="nkVHdqA7vqXemqnChmF6-45" edge="1">
          <mxGeometry relative="1" as="geometry">
            <mxPoint x="-420" y="780" as="targetPoint" />
            <mxPoint x="-420.5" y="760" as="sourcePoint" />
            <Array as="points" />
          </mxGeometry>
        </mxCell>
        <mxCell id="3_DOvw3Ty_Qm4EHs4ZbO-1" value="" style="shape=folder;fontStyle=1;tabWidth=80;tabHeight=30;tabPosition=left;html=1;boundedLbl=1;whiteSpace=wrap;" vertex="1" parent="1">
          <mxGeometry x="-820" y="940" width="900" height="850" as="geometry" />
        </mxCell>
        <mxCell id="3_DOvw3Ty_Qm4EHs4ZbO-2" value="&lt;span style=&quot;font-size: 14px;&quot;&gt;&lt;b&gt;Pedido&lt;/b&gt;&lt;/span&gt;" style="text;html=1;strokeColor=none;fillColor=none;align=center;verticalAlign=middle;whiteSpace=wrap;rounded=0;" vertex="1" parent="1">
          <mxGeometry x="-810" y="940" width="60" height="30" as="geometry" />
        </mxCell>
        <mxCell id="3_DOvw3Ty_Qm4EHs4ZbO-3" style="edgeStyle=orthogonalEdgeStyle;rounded=0;orthogonalLoop=1;jettySize=auto;html=1;entryX=0;entryY=0.5;entryDx=0;entryDy=0;" edge="1" parent="1" source="3_DOvw3Ty_Qm4EHs4ZbO-4" target="3_DOvw3Ty_Qm4EHs4ZbO-8">
          <mxGeometry relative="1" as="geometry">
            <mxPoint x="-540" y="1045" as="targetPoint" />
          </mxGeometry>
        </mxCell>
        <object label="" Início="" id="3_DOvw3Ty_Qm4EHs4ZbO-4">
          <mxCell style="ellipse;fillColor=strokeColor;html=1;" vertex="1" parent="1">
            <mxGeometry x="-750" y="1030" width="30" height="30" as="geometry" />
          </mxCell>
        </object>
        <mxCell id="3_DOvw3Ty_Qm4EHs4ZbO-5" value="INÍCIO" style="text;strokeColor=none;fillColor=none;align=left;verticalAlign=middle;spacingLeft=4;spacingRight=4;overflow=hidden;points=[[0,0.5],[1,0.5]];portConstraint=eastwest;rotatable=0;whiteSpace=wrap;html=1;fontSize=12;fontFamily=Helvetica;fontColor=default;" vertex="1" parent="1">
          <mxGeometry x="-760" y="1065" width="50" height="25" as="geometry" />
        </mxCell>
        <mxCell id="3_DOvw3Ty_Qm4EHs4ZbO-6" value="" style="ellipse;html=1;shape=endState;fillColor=strokeColor;rounded=1;strokeColor=default;fontFamily=Helvetica;fontSize=12;fontColor=default;" vertex="1" parent="1">
          <mxGeometry x="-430" y="1710" width="30" height="30" as="geometry" />
        </mxCell>
        <mxCell id="3_DOvw3Ty_Qm4EHs4ZbO-7" value="FINAL" style="text;strokeColor=none;fillColor=none;align=left;verticalAlign=middle;spacingLeft=4;spacingRight=4;overflow=hidden;points=[[0,0.5],[1,0.5]];portConstraint=eastwest;rotatable=0;whiteSpace=wrap;html=1;fontSize=12;fontFamily=Helvetica;fontColor=default;" vertex="1" parent="1">
          <mxGeometry x="-438" y="1740" width="50" height="25" as="geometry" />
        </mxCell>
        <mxCell id="3_DOvw3Ty_Qm4EHs4ZbO-10" style="edgeStyle=orthogonalEdgeStyle;rounded=0;orthogonalLoop=1;jettySize=auto;html=1;exitX=1;exitY=0.5;exitDx=0;exitDy=0;entryX=0;entryY=0.5;entryDx=0;entryDy=0;" edge="1" parent="1" source="3_DOvw3Ty_Qm4EHs4ZbO-8" target="3_DOvw3Ty_Qm4EHs4ZbO-9">
          <mxGeometry relative="1" as="geometry" />
        </mxCell>
        <mxCell id="3_DOvw3Ty_Qm4EHs4ZbO-8" value="COMEÇA UM NOVO PEDIDO" style="rounded=1;whiteSpace=wrap;html=1;" vertex="1" parent="1">
          <mxGeometry x="-570" y="1015" width="120" height="60" as="geometry" />
        </mxCell>
        <mxCell id="3_DOvw3Ty_Qm4EHs4ZbO-13" style="edgeStyle=orthogonalEdgeStyle;rounded=0;orthogonalLoop=1;jettySize=auto;html=1;entryX=0.5;entryY=0;entryDx=0;entryDy=0;exitX=0.5;exitY=1;exitDx=0;exitDy=0;" edge="1" parent="1" source="3_DOvw3Ty_Qm4EHs4ZbO-9" target="3_DOvw3Ty_Qm4EHs4ZbO-12">
          <mxGeometry relative="1" as="geometry" />
        </mxCell>
        <mxCell id="3_DOvw3Ty_Qm4EHs4ZbO-9" value="PREENCHE AS INFORMAÇÕES DA PÁGINA DE PEDIDOS" style="rounded=1;whiteSpace=wrap;html=1;" vertex="1" parent="1">
          <mxGeometry x="-260" y="1075" width="115" height="85" as="geometry" />
        </mxCell>
        <mxCell id="3_DOvw3Ty_Qm4EHs4ZbO-17" style="edgeStyle=orthogonalEdgeStyle;rounded=0;orthogonalLoop=1;jettySize=auto;html=1;entryX=0.5;entryY=0;entryDx=0;entryDy=0;" edge="1" parent="1" source="3_DOvw3Ty_Qm4EHs4ZbO-12" target="3_DOvw3Ty_Qm4EHs4ZbO-16">
          <mxGeometry relative="1" as="geometry" />
        </mxCell>
        <mxCell id="3_DOvw3Ty_Qm4EHs4ZbO-18" style="edgeStyle=orthogonalEdgeStyle;rounded=0;orthogonalLoop=1;jettySize=auto;html=1;entryX=0.5;entryY=0;entryDx=0;entryDy=0;" edge="1" parent="1" source="3_DOvw3Ty_Qm4EHs4ZbO-12" target="3_DOvw3Ty_Qm4EHs4ZbO-15">
          <mxGeometry relative="1" as="geometry" />
        </mxCell>
        <mxCell id="3_DOvw3Ty_Qm4EHs4ZbO-12" value="" style="rhombus;whiteSpace=wrap;html=1;rounded=1;strokeColor=default;fontFamily=Helvetica;fontSize=12;fontColor=default;fillColor=default;" vertex="1" parent="1">
          <mxGeometry x="-405" y="1250" width="70" height="50" as="geometry" />
        </mxCell>
        <mxCell id="3_DOvw3Ty_Qm4EHs4ZbO-14" value="USUÁRIO JÁ É CADASTRADO?" style="text;strokeColor=none;fillColor=none;align=left;verticalAlign=middle;spacingLeft=4;spacingRight=4;overflow=hidden;points=[[0,0.5],[1,0.5]];portConstraint=eastwest;rotatable=0;whiteSpace=wrap;html=1;fontSize=12;fontFamily=Helvetica;fontColor=default;" vertex="1" parent="1">
          <mxGeometry x="-425" y="1290" width="110" height="65" as="geometry" />
        </mxCell>
        <mxCell id="3_DOvw3Ty_Qm4EHs4ZbO-23" style="edgeStyle=orthogonalEdgeStyle;rounded=0;orthogonalLoop=1;jettySize=auto;html=1;entryX=1;entryY=0.5;entryDx=0;entryDy=0;" edge="1" parent="1" source="3_DOvw3Ty_Qm4EHs4ZbO-15" target="3_DOvw3Ty_Qm4EHs4ZbO-16">
          <mxGeometry relative="1" as="geometry" />
        </mxCell>
        <mxCell id="3_DOvw3Ty_Qm4EHs4ZbO-15" value="PREENCHE PÁGINA DE CADASTRO RÁPIDO" style="rounded=1;whiteSpace=wrap;html=1;" vertex="1" parent="1">
          <mxGeometry x="-150" y="1435" width="120" height="70" as="geometry" />
        </mxCell>
        <mxCell id="3_DOvw3Ty_Qm4EHs4ZbO-21" style="edgeStyle=orthogonalEdgeStyle;rounded=0;orthogonalLoop=1;jettySize=auto;html=1;entryX=0.5;entryY=0;entryDx=0;entryDy=0;exitX=0.5;exitY=1;exitDx=0;exitDy=0;" edge="1" parent="1" source="3_DOvw3Ty_Qm4EHs4ZbO-16" target="3_DOvw3Ty_Qm4EHs4ZbO-6">
          <mxGeometry relative="1" as="geometry" />
        </mxCell>
        <mxCell id="3_DOvw3Ty_Qm4EHs4ZbO-16" value="PEDIDO É CADASTRADO E USUÁRIO VOLTA A PÁGINA INICIAL" style="rounded=1;whiteSpace=wrap;html=1;" vertex="1" parent="1">
          <mxGeometry x="-555" y="1450" width="120" height="80" as="geometry" />
        </mxCell>
        <mxCell id="3_DOvw3Ty_Qm4EHs4ZbO-19" value="SIM" style="text;strokeColor=none;fillColor=none;align=left;verticalAlign=middle;spacingLeft=4;spacingRight=4;overflow=hidden;points=[[0,0.5],[1,0.5]];portConstraint=eastwest;rotatable=0;whiteSpace=wrap;html=1;fontSize=12;fontFamily=Helvetica;fontColor=default;" vertex="1" parent="1">
          <mxGeometry x="-483" y="1250" width="40" height="20" as="geometry" />
        </mxCell>
        <mxCell id="3_DOvw3Ty_Qm4EHs4ZbO-20" value="NÃO" style="text;strokeColor=none;fillColor=none;align=left;verticalAlign=middle;spacingLeft=4;spacingRight=4;overflow=hidden;points=[[0,0.5],[1,0.5]];portConstraint=eastwest;rotatable=0;whiteSpace=wrap;html=1;fontSize=12;fontFamily=Helvetica;fontColor=default;" vertex="1" parent="1">
          <mxGeometry x="-230" y="1250" width="40" height="20" as="geometry" />
        </mxCell>
      </root>
    </mxGraphModel>
  </diagram>
</mxfile>
